<svg width="36" height="33" viewBox="0 0 36 33" fill="none" xmlns="http://www.w3.org/2000/svg">
<path d="M14.6119 15.0548L14.6119 21.8014C14.6119 22.6248 13.9418 23.2949 13.1184 23.2949C12.2949 23.2949 11.6248 22.6248 11.6248 21.8014L11.6248 20.8586L4.05476 22.0115C1.90244 22.2784 3.20996e-08 20.6031 5.79689e-08 18.4337C8.38382e-08 16.2644 1.90244 14.5834 4.05476 14.856L11.6248 16.0088L11.6248 15.0661C11.6248 14.2427 12.2949 13.5726 13.1184 13.5726C13.9418 13.5726 14.6119 14.2256 14.6119 15.0548ZM1.43109 18.4281C1.43109 19.5184 2.31701 20.4043 3.40736 20.4043C4.49772 20.4043 5.38931 19.5184 5.38931 18.4281C5.38931 17.3377 4.5034 16.4518 3.41304 16.4518C2.32269 16.4518 1.43109 17.3377 1.43109 18.4281Z" fill="white"/>
<path d="M20.3992 21.4607C20.6945 21.1597 21.1147 20.9723 21.569 20.9723L24.6073 20.9723C25.0546 20.9723 25.4836 20.7946 25.7999 20.4783C26.1162 20.162 26.2939 19.733 26.2939 19.2856C26.2939 18.82 26.1065 18.394 25.7998 18.0931C25.4932 17.7921 25.0729 17.599 24.6073 17.599L24.0507 17.599C23.0512 17.599 22.2448 16.7926 22.2448 15.7988C22.2448 15.299 22.4436 14.8504 22.7786 14.521C23.1023 14.1973 23.551 13.9929 24.0507 13.9929L24.2381 13.9929L24.2381 8.62059C24.2381 8.18984 24.4092 7.77672 24.7138 7.47213C25.0184 7.16754 25.4315 6.99642 25.8623 6.99642L34.1479 6.99642C34.5786 6.99642 34.9918 7.16754 35.2963 7.47213C35.6009 7.77672 35.7721 8.18984 35.7721 8.62059L35.7721 30.3936C35.7721 30.8244 35.6009 31.2375 35.2963 31.5421C34.9918 31.8467 34.5786 32.0178 34.1479 32.0178L25.8623 32.0178L17.9856 32.0292C17.7192 32.0299 17.4552 31.978 17.2089 31.8764C16.9626 31.7748 16.7388 31.6255 16.5504 31.437C16.362 31.2486 16.2127 31.0248 16.111 30.7785C16.0094 30.5322 15.9575 30.2682 15.9582 30.0018L15.9582 29.9507C15.9567 29.676 16.0096 29.4038 16.1136 29.1496C16.2177 28.8954 16.371 28.6643 16.5647 28.4696C16.7583 28.2749 16.9886 28.1203 17.2422 28.0149C17.4958 27.9094 17.7678 27.8552 18.0424 27.8552L24.0734 27.8552C24.1302 27.8552 24.1813 27.8552 24.2381 27.8438C24.6789 27.8038 25.0888 27.6004 25.3872 27.2736C25.6856 26.9468 25.8511 26.5202 25.851 26.0777L25.851 26.072C25.851 25.1463 25.1411 24.3853 24.2381 24.3058C24.1813 24.2945 24.1302 24.2945 24.0734 24.2945L21.569 24.2945C20.6547 24.2945 19.9108 23.5505 19.9108 22.6362C19.9108 22.1762 20.0925 21.7617 20.3992 21.4607Z" fill="#96CE06"/>
<path d="M31.0642 5.86638L28.8891 5.86638C28.6506 3.78789 26.8845 2.1694 24.7435 2.1694C22.4435 2.1694 20.5695 4.04345 20.5695 6.34342L20.5695 14.6403C20.5695 17.3094 18.4115 19.4845 15.7481 19.5129L15.7481 17.3435C17.2132 17.3151 18.4001 16.1169 18.4001 14.646L18.4001 6.34342C18.4001 2.84519 21.2453 3.84565e-05 24.7435 3.84982e-05C28.0827 -0.00564155 30.82 2.58964 31.0642 5.86638Z" fill="white"/>
</svg>
