<svg width="20" height="15" viewBox="0 0 20 15" fill="none" xmlns="http://www.w3.org/2000/svg">
<path d="M11.6714 9.74324C11.1739 10.075 10.5959 10.2503 10 10.2503C9.40414 10.2503 8.82617 10.075 8.32859 9.74324L0.133164 4.27945C0.087922 4.2492 0.0435173 4.21772 0 4.18504L0 13.138C0 14.1645 0.833008 14.9792 1.84113 14.9792H18.1588C19.1853 14.9792 20 14.1462 20 13.138V4.185C19.9564 4.21777 19.9119 4.24932 19.8665 4.27961L11.6714 9.74324Z" fill="white"/>
<path d="M0.783204 3.30437L8.97863 8.7682C9.28887 8.97504 9.64441 9.07844 9.99996 9.07844C10.3555 9.07844 10.7111 8.975 11.0214 8.7682L19.2168 3.30437C19.7072 2.97762 20 2.43074 20 1.84051C20 0.825625 19.1743 0 18.1595 0H1.84051C0.825665 3.90625e-05 9.68791e-07 0.825664 9.68791e-07 1.84148C-0.000303273 2.13102 0.0710559 2.41613 0.207714 2.67138C0.344372 2.92663 0.54208 3.1441 0.783204 3.30437Z" fill="white"/>
</svg>
