<svg width="19" height="20" viewBox="0 0 19 20" fill="none" xmlns="http://www.w3.org/2000/svg">
<path d="M2.70792 10.4427C2.70792 14.1686 5.73286 17.1566 9.42181 17.1566C13.1108 17.1566 16.1357 14.1317 16.1357 10.4427C16.1357 6.71688 13.1477 3.69194 9.42181 3.69194C5.69597 3.69194 2.70792 6.71688 2.70792 10.4427ZM8.68402 10.0738V6.49555C8.68402 6.08976 9.01602 5.75776 9.42181 5.75776C9.82759 5.75776 10.1596 6.12665 10.1596 6.49555V9.85249H12.2992C12.705 9.85249 13.037 10.1845 13.037 10.5903C13.037 10.9961 12.6681 11.3281 12.2992 11.3281H9.42181C9.01602 11.3281 8.68402 10.9961 8.68402 10.5903V10.0738Z" fill="white"/>
<path d="M18.4597 7.56534C17.3531 4.06084 14.2543 1.55235 10.6392 1.0359C10.676 0.925228 10.7129 0.814559 10.7129 0.74078C10.7129 0.445664 10.5285 0.187437 10.3072 0.0767684C10.012 -0.0707896 9.71692 0.00298943 9.45869 0.224327L8.68402 0.888338C8.57335 0.999007 8.42579 1.07279 8.35201 1.18345C8.27823 1.29412 8.24134 1.44168 8.24134 1.58924C8.24134 1.92124 8.46268 2.10569 8.64713 2.36392C8.86846 2.62215 9.0898 2.91726 9.34803 3.17549C9.75381 3.65505 10.6023 3.28616 10.6023 2.69592V2.54837C13.2214 2.95415 15.5455 4.61418 16.7259 7.04889C18.054 9.8156 17.6113 13.2832 15.6192 15.6073C13.6272 17.9682 10.4178 19.0011 7.42977 18.2264C4.47861 17.4517 2.22835 15.017 1.63812 12.0659C0.863436 8.37691 2.92925 4.68796 6.2862 3.1386C6.65509 2.99104 6.72887 2.4377 6.54442 2.14258C6.32309 1.77369 5.9173 1.69991 5.54841 1.88436C2.0439 3.4706 -0.20636 7.15956 0.0149771 11.033C0.236314 14.685 2.52346 17.8944 5.88041 19.2962C9.27425 20.698 13.2583 19.9602 15.9144 17.4886C18.5335 14.9432 19.5664 11.033 18.4597 7.56534Z" fill="white"/>
</svg>
